<svg xmlns="http://www.w3.org/2000/svg" viewBox="0 0 238.34666 60.746666" height="60.747" width="238.347"><g fill="#fff"><path d="M0 5.58h21.702v5.757H0L1.883 8.61 0 5.58m52.43 53.901h3.23c2.47 0 4.4-1.852 4.4-4.32 0-2.486-1.963-4.339-4.447-4.339H52.43zm3.215-9.878c3.228 0 5.697 2.391 5.697 5.542 0 3.149-2.485 5.54-5.745 5.54h-4.432V49.602h4.48m18.769 1.22v3.64H80v1.22h-5.587v3.799h6.458v1.203h-7.725v-11.08h7.52v1.218h-6.253m21.445 9.862l-4.495-11.08h1.361l3.815 9.609 3.83-9.61h1.33l-4.527 11.081h-1.314m19.108-12.32v4.55h6.981v1.521h-6.98v4.747h8.067v1.502h-9.65V46.842h9.394v1.522h-7.812m28.873 11.117v1.203h-6.126v-11.08h1.267v9.877h4.859m11.791-4.336c0 2.438 2.057 4.383 4.526 4.383 2.468 0 4.495-1.945 4.495-4.383 0-2.439-2.027-4.37-4.495-4.37-2.47 0-4.527 1.931-4.527 4.37zm10.32 0c0 3.117-2.565 5.602-5.794 5.602-3.245 0-5.81-2.485-5.81-5.602 0-3.135 2.565-5.573 5.81-5.573 3.23 0 5.793 2.453 5.793 5.573m13.071.823h2.85c1.994 0 3.149-.888 3.149-2.612 0-1.679-1.155-2.534-3.15-2.534h-2.849zm2.896-6.365c2.739 0 4.321 1.362 4.321 3.722 0 2.453-1.582 3.862-4.321 3.862h-2.896v3.497h-1.267v-11.08h4.163"/><path d="M205.81 17.783c-1.49 9.25-2.763 14.781-8.402 15.737-5.637.958-19.352 2.552-26.901 2.552-7.547 0-29.238-.212-32.43-4.463-3.188-4.257-3.826-8.086-4.357-11.86-.533-3.772-1.489-10.367 3.083-12.172 2.813-1.115 13.928-4.148 32.216-4.148 18.29 0 27.858 1.7 31.26 2.658 3.402.954 7.02 2.444 5.53 11.696zM104.585 19.75c-.531 3.774-1.17 7.603-4.36 11.86-3.19 4.251-24.88 4.463-32.431 4.463-7.547 0-21.263-1.594-26.902-2.552-5.635-.956-6.91-6.487-8.398-15.737-1.488-9.252 2.125-10.742 5.529-11.696C41.428 5.13 50.997 3.43 69.281 3.43c18.291 0 29.406 3.033 32.22 4.148 4.571 1.805 3.613 8.4 3.084 12.172zm103.35-14.404h8.669c-.121-.818-.341-1.508-.699-1.917-1.377-1.598-30.617-3.19-41.57-3.401-10.951-.212-23.178.958-29.875 1.803-6.699.855-21.375 4.577-25.31 4.577-3.932 0-18.606-3.722-25.306-4.577C87.144.986 74.92-.184 63.97.028c-10.955.21-40.193 1.803-41.574 3.4-.353.41-.574 1.1-.694 1.918h8.669v3.293h-8.722c.13 1.483-.265 2.375.054 2.698.743.74 4.733 1.553 6.007 8.412 1.278 6.861 1.808 10.263 2.127 11.645.322 1.381 1.384 4.358 7.55 5.316 6.166.955 26.157 2.336 33.812 2.336 7.655 0 21.159-.954 23.926-1.381 2.762-.424 8.608-.53 10.844-7.014 2.235-6.488 5.74-15.313 13.183-15.313s10.953 8.825 13.187 15.313c2.231 6.484 8.08 6.59 10.843 7.014 2.763.427 16.267 1.381 23.926 1.381 7.653 0 27.642-1.381 33.812-2.336 6.169-.958 7.229-3.935 7.548-5.316.318-1.382.848-4.784 2.126-11.645 1.276-6.86 5.307-7.997 6.047-8.737.323-.323-.112-.89.016-2.373h-8.721V5.346"/><path d="M75.386 24.111c0 .912.056 3.016.056 3.32-1.136.415-3.46.748-5.564.748-5.703 0-9.08-2.99-9.08-6.892 0-.585.132-1.277.425-2.032l2.374.623c.167-.465-.225.952-.225 1.436 0 2.464 2.05 5.065 7.032 5.065 1.052 0 2.104-.138 2.603-.33v-9.755c0-.693-.057-5.453-.084-5.592h2.463v13.409"/><path d="M75.386 24.111c0 .912.056 3.016.056 3.32-1.136.415-3.46.748-5.564.748-5.703 0-9.08-2.99-9.08-6.892 0-.585.132-1.277.425-2.032l2.374.623c.167-.465-.225.952-.225 1.436 0 2.464 2.05 5.065 7.032 5.065 1.052 0 2.104-.138 2.603-.33v-9.755c0-.693-.057-5.453-.084-5.592h2.463v11.692zM238.343 5.255H216.64v5.757h21.703l-1.883-2.725 1.883-3.032m-63.451 18.917c-.936 1.037-2.887 1.444-3.943 1.555-1.056.11-3.113-.166-3.113-.166s.028-1.89 0-3.39c-.027-1.5-.083-8.222-.083-8.222s-.25-.083.806.223 2.888 1.139 4 1.889 3.333 2.5 3.554 4.61c.222 2.112-.444 2.64-1.221 3.5zm3.501-7.278c-1.556-2.111-4.277-4.278-6.61-5.167-2.334-.89-3.224-1.166-5.002-1.61-1.777-.445-2.722-.223-2.722-.223l.056.444v9.556l-.111 7.944s-.499.39 3.223.778c3.721.39 6.389.278 8.945-1.111s3.388-3.222 3.777-4.833c.39-1.611 0-3.667-1.556-5.778"/></g></svg>