<?xml version="1.0" encoding="UTF-8" standalone="no"?>
<svg
   xmlns:dc="http://purl.org/dc/elements/1.1/"
   xmlns:cc="http://creativecommons.org/ns#"
   xmlns:rdf="http://www.w3.org/1999/02/22-rdf-syntax-ns#"
   xmlns:svg="http://www.w3.org/2000/svg"
   xmlns="http://www.w3.org/2000/svg"
   viewBox="0 0 238.34666 60.746666"
   height="60.746666"
   width="238.34666"
   xml:space="preserve"
   id="svg2"
   version="1.1"><metadata
     id="metadata8"><rdf:RDF><cc:Work
         rdf:about=""><dc:format>image/svg+xml</dc:format><dc:type
           rdf:resource="http://purl.org/dc/dcmitype/StillImage" /></cc:Work></rdf:RDF></metadata><defs
     id="defs6" /><g
     transform="matrix(1.3333333,0,0,-1.3333333,0,60.746667)"
     id="g10"><g
       transform="scale(0.1)"
       id="g12"><path
         id="path14"
         style="fill:#ffffff;fill-opacity:1;fill-rule:nonzero;stroke:none"
         d="M 0,413.75 H 162.766 V 370.574 H 0 L 14.1211,391.016 0,413.75" /><path
         id="path16"
         style="fill:#ffffff;fill-opacity:1;fill-rule:nonzero;stroke:none"
         d="m 393.23,9.49219 h 24.219 c 18.524,0 33.004,13.88671 33.004,32.40231 0,18.6407 -14.723,32.5391 -33.359,32.5391 H 393.23 Z m 24.106,74.08201 c 24.211,0 42.73,-17.9297 42.73,-41.5625 0,-23.6133 -18.636,-41.54295 -43.089,-41.54295 H 383.734 V 83.5742 h 33.602" /><path
         id="path18"
         style="fill:#ffffff;fill-opacity:1;fill-rule:nonzero;stroke:none"
         d="M 558.102,74.4336 V 47.1289 h 41.902 V 37.9883 H 558.102 V 9.49219 h 48.437 V 0.46875 H 548.605 V 83.5742 h 56.391 v -9.1406 h -46.894" /><path
         id="path20"
         style="fill:#ffffff;fill-opacity:1;fill-rule:nonzero;stroke:none"
         d="M 718.938,0.46875 685.219,83.5742 h 10.211 l 28.609,-72.0703 28.731,72.0703 h 9.968 L 728.789,0.46875 h -9.851" /><path
         id="path22"
         style="fill:#ffffff;fill-opacity:1;fill-rule:nonzero;stroke:none"
         d="M 862.246,92.8711 V 58.75 h 52.359 V 47.3359 H 862.246 V 11.7383 h 60.512 V 0.46875 H 850.383 V 104.285 h 70.453 V 92.8711 h -58.59" /><path
         id="path24"
         style="fill:#ffffff;fill-opacity:1;fill-rule:nonzero;stroke:none"
         d="M 1078.79,9.49219 V 0.46875 h -45.94 V 83.5742 h 9.5 V 9.49219 h 36.44" /><path
         id="path26"
         style="fill:#ffffff;fill-opacity:1;fill-rule:nonzero;stroke:none"
         d="m 1167.22,42.0117 c 0,-18.2812 15.43,-32.87107 33.95,-32.87107 18.51,0 33.71,14.58987 33.71,32.87107 0,18.293 -15.2,32.7735 -33.71,32.7735 -18.52,0 -33.95,-14.4805 -33.95,-32.7735 z m 77.4,0 C 1244.62,18.6328 1225.39,0 1201.17,0 c -24.34,0 -43.57,18.6328 -43.57,42.0117 0,23.5156 19.23,41.7969 43.57,41.7969 24.22,0 43.45,-18.3984 43.45,-41.7969" /><path
         id="path28"
         style="fill:#ffffff;fill-opacity:1;fill-rule:nonzero;stroke:none"
         d="m 1342.65,35.8398 h 21.37 c 14.96,0 23.62,6.6602 23.62,19.5899 0,12.5898 -8.66,19.0039 -23.62,19.0039 h -21.37 z m 21.72,47.7344 c 20.54,0 32.41,-10.2148 32.41,-27.9101 0,-18.3985 -11.87,-28.9649 -32.41,-28.9649 h -21.72 V 0.46875 h -9.5 V 83.5742 h 31.22" /><path
         id="path30"
         style="fill:#ffffff;fill-opacity:1;fill-rule:nonzero;stroke:none"
         d="m 1543.57,322.227 c -11.17,-69.375 -20.72,-110.86 -63.01,-118.028 -42.28,-7.187 -145.14,-19.14 -201.76,-19.14 -56.6,0 -219.28,1.589 -243.22,33.476 -23.91,31.926 -28.7,60.645 -32.68,88.945 -3.998,28.29 -11.166,77.754 23.12,91.29 21.1,8.367 104.46,31.113 241.62,31.113 137.18,0 208.94,-12.754 234.45,-19.934 25.52,-7.156 52.65,-18.328 41.48,-87.722 z M 784.395,307.48 c -3.985,-28.3 -8.782,-57.019 -32.7,-88.945 -23.922,-31.887 -186.605,-33.476 -243.234,-33.476 -56.598,0 -159.469,11.953 -201.762,19.14 -42.265,7.168 -51.832,48.653 -62.988,118.028 -11.156,69.394 15.937,80.566 41.469,87.722 25.535,7.18 97.308,19.934 234.437,19.934 137.184,0 220.543,-22.746 241.653,-31.113 34.281,-13.536 27.093,-63 23.125,-91.29 z m 775.115,108.028 h 65.02 c -0.91,6.133 -2.56,11.308 -5.24,14.375 -10.33,11.984 -229.63,23.926 -311.78,25.508 -82.13,1.589 -173.83,-7.188 -224.06,-13.524 -50.24,-6.41 -160.309,-34.328 -189.821,-34.328 -29.492,0 -139.547,27.918 -189.797,34.328 -50.246,6.336 -141.934,15.113 -224.062,13.524 -82.168,-1.582 -301.45,-13.524 -311.805,-25.508 -2.649,-3.067 -4.309,-8.242 -5.207,-14.375 h 65.015 v -24.699 h -65.41 c 0.973,-11.121 -1.992,-17.813 0.403,-20.235 5.57,-5.547 35.496,-11.648 45.054,-63.094 9.582,-51.457 13.559,-76.972 15.953,-87.335 2.411,-10.36 10.375,-32.684 56.625,-39.872 46.239,-7.16 196.172,-17.519 253.59,-17.519 57.407,0 158.688,7.156 179.442,10.359 20.715,3.176 64.562,3.977 81.328,52.602 16.762,48.66 43.047,114.851 98.871,114.851 55.828,0 82.148,-66.191 98.906,-114.851 16.735,-48.625 60.605,-49.426 81.325,-52.602 20.72,-3.203 122,-10.359 179.44,-10.359 57.4,0 207.32,10.359 253.59,17.519 46.27,7.188 54.22,29.512 56.61,39.872 2.39,10.363 6.36,35.878 15.95,87.335 9.57,51.446 39.8,59.981 45.35,65.528 2.42,2.422 -0.84,6.68 0.12,17.801 h -65.41 v 24.699" /><path
         id="path32"
         style="fill:#ffffff;fill-opacity:1;fill-rule:nonzero;stroke:none"
         d="m 565.395,274.766 c 0,-6.836 0.418,-22.618 0.418,-24.903 -8.516,-3.105 -25.954,-5.605 -41.731,-5.605 -42.769,0 -68.098,22.422 -68.098,51.687 0,4.387 0.989,9.582 3.192,15.246 v 0 l 17.804,-4.675 v 0 c 1.247,3.484 -1.687,-7.141 -1.687,-10.774 0,-18.476 15.367,-37.988 52.734,-37.988 7.891,0 15.782,1.035 19.524,2.48 v 73.164 c 0,5.196 -0.426,40.891 -0.625,41.934 h 18.469 v -87.687 -12.879" /><path
         id="path34"
         style="fill:#ffffff;stroke:none;stroke-width:10;stroke-linecap:butt;stroke-linejoin:miter;stroke-miterlimit:10;stroke-dasharray:none;stroke-opacity:1"
         d="m 565.395,274.766 c 0,-6.836 0.418,-22.618 0.418,-24.903 -8.516,-3.105 -25.954,-5.605 -41.731,-5.605 -42.769,0 -68.098,22.422 -68.098,51.687 0,4.387 0.989,9.582 3.192,15.246 v 0 l 17.804,-4.675 v 0 c 1.247,3.484 -1.687,-7.141 -1.687,-10.774 0,-18.476 15.367,-37.988 52.734,-37.988 7.891,0 15.782,1.035 19.524,2.48 v 73.164 c 0,5.196 -0.426,40.891 -0.625,41.934 h 18.469 v -87.687 z" /><path
         id="path36"
         style="fill:#ffffff;fill-opacity:1;fill-rule:nonzero;stroke:none"
         d="M 1787.57,416.184 H 1624.8 v -43.176 h 162.77 l -14.12,20.437 14.12,22.739" /><path
         id="path38"
         style="fill:#ffffff;fill-opacity:1;fill-rule:nonzero;stroke:none"
         d="m 1311.69,274.313 c -7.02,-7.782 -21.65,-10.836 -29.57,-11.668 -7.92,-0.829 -23.35,1.25 -23.35,1.25 0,0 0.21,14.168 0,25.418 -0.2,11.25 -0.62,61.667 -0.62,61.667 0,0 -1.88,0.625 6.04,-1.667 7.92,-2.297 21.66,-8.543 30,-14.168 8.34,-5.625 25,-18.75 26.66,-34.582 1.66,-15.836 -3.33,-19.793 -9.16,-26.25 z m 26.26,54.582 c -11.67,15.835 -32.08,32.082 -49.58,38.75 -17.5,6.671 -24.18,8.75 -37.51,12.082 -13.33,3.332 -20.42,1.668 -20.42,1.668 l 0.42,-3.332 v -71.668 l -0.83,-59.582 c 0,0 -3.74,-2.918 24.17,-5.836 27.91,-2.918 47.92,-2.082 67.09,8.336 19.17,10.414 25.41,24.164 28.33,36.25 2.92,12.082 0,27.5 -11.67,43.332" /></g></g></svg>